<!DOCTYPE svg PUBLIC "-//W3C//DTD SVG 1.1//EN" "http://www.w3.org/Graphics/SVG/1.1/DTD/svg11.dtd">
<!-- Uploaded to: SVG Repo, www.svgrepo.com, Transformed by: SVG Repo Mixer Tools -->
<svg version="1.1" id="Uploaded to svgrepo.com" xmlns="http://www.w3.org/2000/svg" xmlns:xlink="http://www.w3.org/1999/xlink" width="64px" height="64px" viewBox="-3.2 -3.2 38.40 38.40" xml:space="preserve" fill="#000000" stroke="#000000" stroke-width="0.00032" transform="rotate(0)">

<g id="SVGRepo_bgCarrier" stroke-width="0" transform="translate(0,0), scale(1)">

<rect x="-3.2" y="-3.2" width="38.40" height="38.40" rx="0" fill="#14eccd" strokewidth="0"/>

</g>

<g id="SVGRepo_tracerCarrier" stroke-linecap="round" stroke-linejoin="round" stroke="#CCCCCC" stroke-width="0.44800000000000006"/>

<g id="SVGRepo_iconCarrier"> <style type="text/css"> .feather_een{fill:#111918;} .st0{fill:#0B1719;} </style> <path class="feather_een" d="M20,9.069V7c0-0.552-0.448-1-1-1h-1V4c0.552,0,1-0.448,1-1V2c0-0.552-0.448-1-1-1h-8 C9.448,1,9,1.448,9,2v0.18c0,0.477,0.336,0.887,0.804,0.981L14,4v2h-1c-0.552,0-1,0.448-1,1v2.069C8.055,9.562,5,12.921,5,17v11 c0,1.657,1.343,3,3,3h16c1.657,0,3-1.343,3-3V17C27,12.921,23.945,9.562,20,9.069z M10,2h8v1h-3.901L10,2.18V2z M15,4h2v2h-2V4z M13,7h1h4h1v2h-6V7z M13,10h6c3.86,0,7,3.14,7,7H6C6,13.14,9.14,10,13,10z M24,30H8c-1.103,0-2-0.897-2-2V18h20v10 C26,29.103,25.103,30,24,30z"/> </g>

</svg>